<?xml version="1.0" standalone="no"?>
<!DOCTYPE svg PUBLIC "-//W3C//DTD SVG 20010904//EN"
 "http://www.w3.org/TR/2001/REC-SVG-20010904/DTD/svg10.dtd">
<svg version="1.0" xmlns="http://www.w3.org/2000/svg"
 width="618.000000pt" height="618.000000pt" viewBox="0 0 618.000000 618.000000"
 preserveAspectRatio="xMidYMid meet">
<metadata>
Created by potrace 1.11, written by Peter Selinger 2001-2013
</metadata>
<g transform="translate(0.000000,618.000000) scale(0.100000,-0.100000)"
fill="#000000" stroke="none">
<path d="M3508 5523 c12 -2 30 -2 40 0 9 3 -1 5 -23 4 -22 0 -30 -2 -17 -4z"/>
<path d="M1906 3890 c-306 -48 -520 -213 -581 -446 -19 -71 -21 -231 -4 -300
31 -131 139 -261 275 -331 44 -23 160 -69 259 -103 201 -69 263 -99 305 -147
56 -63 59 -164 8 -236 -49 -69 -205 -104 -328 -73 -93 23 -196 77 -263 137
l-59 52 -154 -154 c-85 -84 -154 -156 -153 -159 0 -3 28 -29 62 -58 80 -69
253 -154 382 -189 90 -24 117 -26 280 -27 169 0 186 2 270 28 248 76 395 213
461 432 28 92 25 280 -5 359 -27 69 -71 133 -133 191 -94 90 -184 134 -468
229 -215 73 -273 119 -273 218 0 102 70 168 196 188 124 19 285 -32 375 -120
l42 -41 98 102 c157 165 205 218 201 221 -2 2 -24 19 -49 39 -90 72 -215 131
-360 169 -87 23 -292 33 -384 19z"/>
<path d="M3000 2875 l0 -975 235 0 235 0 0 446 0 445 358 -443 357 -443 308
-3 c169 -1 307 0 307 3 0 3 -198 240 -440 526 l-440 520 353 377 c193 207 380
406 415 443 34 36 62 69 62 73 0 3 -132 6 -292 6 l-293 0 -345 -394 -345 -393
-3 393 -2 394 -235 0 -235 0 0 -975z"/>
</g>
</svg>
